name symmetric_stride_kinematics_HTD_Plus_2.mot
datacolumns 38
datarows 13
range 0.52210400 0.53463449
endheader
                time	/jointset/ground_pelvis/pelvis_tilt/value	/jointset/ground_pelvis/pelvis_list/value	/jointset/ground_pelvis/pelvis_rotation/value	/jointset/ground_pelvis/pelvis_tx/value	/jointset/ground_pelvis/pelvis_ty/value	/jointset/ground_pelvis/pelvis_tz/value	/jointset/hip_r/hip_flexion_r/value	/jointset/hip_r/hip_adduction_r/value	/jointset/hip_r/hip_rotation_r/value	/jointset/knee_r/knee_angle_r/value	/jointset/ankle_r/ankle_angle_r/value	/jointset/subtalar_r/subtalar_angle_r/value	/jointset/mtp_r/mtp_angle_r/value	/jointset/hip_l/hip_flexion_l/value	/jointset/hip_l/hip_adduction_l/value	/jointset/hip_l/hip_rotation_l/value	/jointset/knee_l/knee_angle_l/value	/jointset/ankle_l/ankle_angle_l/value	/jointset/subtalar_l/subtalar_angle_l/value	/jointset/mtp_l/mtp_angle_l/value	/jointset/back/lumbar_extension/value	/jointset/back/lumbar_bending/value	/jointset/back/lumbar_rotation/value	/jointset/acromial_r/arm_flex_r/value	/jointset/acromial_r/arm_add_r/value	/jointset/acromial_r/arm_rot_r/value	/jointset/elbow_r/elbow_flex_r/value	/jointset/radioulnar_r/pro_sup_r/value	/jointset/radius_hand_r/wrist_flex_r/value	/jointset/radius_hand_r/wrist_dev_r/value	/jointset/acromial_l/arm_flex_l/value	/jointset/acromial_l/arm_add_l/value	/jointset/acromial_l/arm_rot_l/value	/jointset/elbow_l/elbow_flex_l/value	/jointset/radioulnar_l/pro_sup_l/value	/jointset/radius_hand_l/wrist_flex_l/value	/jointset/radius_hand_l/wrist_dev_l/value	
          0.52210400	         -9.66776069	          5.38687365	        -14.52628933	          6.19297590	          0.95873466	          0.30775457	         -3.56281856	        -12.89785764	          6.56246043	        -52.01053629	        -28.32219960	        -13.47833326	         -6.34206519	         83.93728936	         -8.78197514	          3.64419931	       -107.81892013	         -8.93158166	        -22.09897515	         15.66533887	         -9.81480560	         -3.46815866	         11.03493416	         89.94333539	        -13.05371442	         -0.06763573	        127.77765491	         78.64282843	         -7.15317768	          8.07698288	        -74.92337348	        -25.05579633	         -0.04205791	         80.04261877	         42.89496149	        -11.82995970	          7.60429046	
          0.52275162	         -9.69354700	          5.40591191	        -14.51279856	          6.20045259	          0.95891762	          0.30794625	         -3.55674194	        -12.90428772	          6.64347968	        -52.43356617	        -28.46059756	        -13.40058430	         -5.95077709	         84.00687071	         -8.88011121	          3.57236528	       -107.12573526	         -9.18576088	        -22.14653813	         15.66547010	         -9.82607142	         -3.54039344	         11.01932902	         89.90307167	        -12.84201476	         -0.09032220	        128.13683087	         78.65234953	         -7.05218952	          8.05702932	        -74.89232345	        -24.92373869	         -0.00000453	         79.53241519	         42.93390378	        -11.94369043	          7.58620706	
          0.52479784	         -9.76760935	          5.47200624	        -14.46318231	          6.22403560	          0.95953704	          0.30854920	         -3.52811263	        -12.92594815	          6.89227461	        -53.77381658	        -28.87802792	        -13.05551563	         -4.67424664	         84.16268222	         -9.17875076	          3.31895716	       -104.88533131	         -9.99876134	        -22.30607859	         15.66568513	         -9.87547319	         -3.78311636	         10.95979557	         89.71508529	        -12.21382251	         -0.15595141	        129.26881538	         78.68280258	         -6.73309693	          7.99394761	        -74.76873088	        -24.46528659	         -0.00001124	         77.96405622	         43.07697866	        -12.30303616	          7.52778851	
          0.52628083	         -9.81516278	          5.52541592	        -14.42225784	          6.24108997	          0.96002326	          0.30898419	         -3.49734917	        -12.94325025	          7.06445977	        -54.74833456	        -29.14375527	        -12.75056550	         -3.72367611	         84.21553467	         -9.38495199	          3.11090077	       -103.21549806	        -10.59639359	        -22.43134389	         15.66568197	         -9.92274603	         -3.97238471	         10.90999233	         89.51940584	        -11.79881253	         -0.20264673	        130.07951727	         78.70411016	         -6.50184992	          7.94825601	        -74.65831360	        -24.09841927	         -0.12754707	         76.87976198	         43.19952080	        -12.56347034	          7.48539832	
          0.52628083	         -9.81516278	          5.52541592	        -14.42225784	          6.24108997	          0.96002326	          0.30898419	         -3.49734917	        -12.94325025	          7.06445977	        -54.74833456	        -29.14375527	        -12.75056550	         -3.72367611	         84.21553467	         -9.38495199	          3.11090077	       -103.21549806	        -10.59639359	        -22.43134389	         15.66568197	         -9.92274603	         -3.97238471	         10.90999233	         89.51940584	        -11.79881253	         -0.20264673	        130.07951727	         78.70411016	         -6.50184992	          7.94825601	        -74.65831360	        -24.09841927	         -0.12754707	         76.87976198	         43.19952080	        -12.56347034	          7.48539832	
          0.52692845	         -9.83430414	          5.55010588	        -14.40352008	          6.24852816	          0.96024523	          0.30917374	         -3.48128977	        -12.95133034	          7.13719114	        -55.17461297	        -29.24596091	        -12.61273103	         -3.30507352	         84.22272632	         -9.47243356	          3.01380727	       -102.47465810	        -10.85907328	        -22.48855398	         15.66570188	         -9.94627060	         -4.05844044	         10.88727286	         89.41785135	        -11.62851579	         -0.22422802	        130.42912337	         78.71296093	         -6.40086145	          7.92830881	        -74.60533590	        -23.93071853	         -0.21591542	         76.42312757	         43.25809247	        -12.67719964	          7.46676528	
          0.52897467	         -9.88578348	          5.63005897	        -14.34155931	          6.27199527	          0.96098879	          0.30977012	         -3.42455897	        -12.97631607	          7.35464501	        -56.52215051	        -29.50565780	        -12.21348460	         -1.97896128	         84.17933748	         -9.73846591	          2.68564669	       -100.09046665	        -11.69233184	        -22.67717935	         15.66564580	        -10.03527077	         -4.34015680	         10.81392776	         89.03135659	        -11.13376433	         -0.30908565	        131.50850545	         78.73819381	         -6.08176937	          7.86522928	        -74.41660023	        -23.38432330	         -0.59827031	         75.05367162	         43.46465296	        -13.03655031	          7.40527238	
          0.53045766	         -9.90981252	          5.68424719	        -14.29263186	          6.28897525	          0.96157441	          0.31019665	         -3.38602080	        -12.98929282	          7.49745362	        -57.49598856	        -29.64005433	        -11.99129345	         -1.02260133	         84.08108975	         -9.91952795	          2.43287371	        -98.32535609	        -12.29518906	        -22.81817828	         15.66579626	        -10.12025680	         -4.54741800	         10.75799733	         88.69077931	        -10.81632412	         -0.37683294	        132.25751937	         78.75282018	         -5.85052090	          7.81954569	        -74.25799731	        -22.97528994	         -0.96845222	         74.13078393	         43.63423415	        -13.29697302	          7.35959837	
          0.53045766	         -9.90981252	          5.68424719	        -14.29263186	          6.28897525	          0.96157441	          0.31019665	         -3.38602080	        -12.98929282	          7.49745362	        -57.49598856	        -29.64005433	        -11.99129345	         -1.02260133	         84.08108975	         -9.91952795	          2.43287371	        -98.32535609	        -12.29518906	        -22.81817828	         15.66579626	        -10.12025680	         -4.54741800	         10.75799733	         88.69077931	        -10.81632412	         -0.37683294	        132.25751937	         78.75282018	         -5.85052090	          7.81954569	        -74.25799731	        -22.97528994	         -0.96845222	         74.13078393	         43.63423415	        -13.29697302	          7.35959837	
          0.53110528	         -9.91563628	          5.70562479	        -14.26998829	          6.29638439	          0.96184404	          0.31038075	         -3.37180973	        -12.99257511	          7.55535203	        -57.91974354	        -29.68615008	        -11.91898646	         -0.60860017	         84.01960646	         -9.99513126	          2.31980526	        -97.54584223	        -12.55700830	        -22.88001947	         15.66594278	        -10.16434135	         -4.63732376	         10.73264799	         88.52649835	        -10.68854073	         -0.40595479	        132.57345548	         78.75798509	         -5.74953185	          7.79960657	        -74.18265210	        -22.79382578	         -1.15365170	         73.74611232	         43.71336604	        -13.41070133	          7.33964513	
          0.53315150	         -9.90761423	          5.75737877	        -14.19099786	          6.31977722	          0.96276191	          0.31094875	         -3.34970118	        -12.98853566	          7.71680184	        -59.24804727	        -29.79492237	        -11.80777360	          0.66723990	         83.74439932	        -10.21698052	          1.95782412	        -95.05371602	        -13.37143467	        -23.07070779	         15.66684321	        -10.34178390	         -4.91170713	         10.64577321	         87.94896240	        -10.32811402	         -0.47490688	        133.51592827	         78.76806465	         -5.43044115	          7.73652507	        -73.91829783	        -22.21076931	         -1.82852761	         72.60402940	         43.98323013	        -13.77005556	          7.27655790	
          0.53463449	         -9.87275573	          5.77990820	        -14.12923967	          6.33671863	          0.96349363	          0.31134774	         -3.35853741	        -12.97383837	          7.81612466	        -60.20005548	        -29.84368266	        -11.82272667	          1.54579322	         83.46500942	        -10.36218833	          1.69125503	        -93.22525849	        -13.94154184	        -23.19924173	         15.66639412	        -10.51032516	         -5.10153392	         10.57832492	         87.47562673	        -10.10802509	         -0.49247852	        134.13729763	         78.76842282	         -5.19918954	          7.69085932	        -73.70012446	        -21.78395624	         -2.39091623	         71.84592919	         44.19702373	        -14.03047116	          7.23088070	
          0.53463449	         -9.87275573	          5.77990820	        -14.12923967	          6.33671863	          0.96349363	          0.31134774	         -3.35853741	        -12.97383837	          7.81612466	        -60.20005548	        -29.84368266	        -11.82272667	          1.54579322	         83.46500942	        -10.36218833	          1.69125503	        -93.22525849	        -13.94154184	        -23.19924173	         15.66639412	        -10.51032516	         -5.10153392	         10.57832492	         87.47562673	        -10.10802509	         -0.49247852	        134.13729763	         78.76842282	         -5.19918954	          7.69085932	        -73.70012446	        -21.78395624	         -2.39091623	         71.84592919	         44.19702373	        -14.03047116	          7.23088070	
